<?xml version="1.0" encoding="utf-8"?>
<!-- Generator: Adobe Illustrator 19.2.1, SVG Export Plug-In . SVG Version: 6.00 Build 0)  -->
<svg version="1.1" id="Layer_1" xmlns="http://www.w3.org/2000/svg" xmlns:xlink="http://www.w3.org/1999/xlink" x="0px" y="0px"
	 viewBox="0 0 30 30" style="enable-background:new 0 0 30 30;" xml:space="preserve">
<style type="text/css">
	.st0{fill:#55ACEE;}
	.st1{fill:#F1F2F2;}
	.st2{fill:none;}
	.st3{fill:#007AB9;}
	.st4{fill:#E52D27;}
	.st5{fill:#CB2027;}
	.st6{fill:#FFFFFF;}
	.st7{fill:#80BA27;}
	.st8{fill:#1D1D1B;}
</style>
<path class="st6" d="M15,30c8.3,0,15-6.7,15-15c0-8.3-6.7-15-15-15C6.7,0,0,6.7,0,15C0,23.3,6.7,30,15,30"/>
<polyline class="st7" points="15,5 9.2,8.3 9.2,15 15,11.7 15,5 "/>
<polyline class="st7" points="9.2,15 9.2,21.7 15,18.3 9.2,15 9.2,15 "/>
<polyline class="st7" points="15,18.3 15,25 20.8,21.7 20.8,15 15,18.3 "/>
<polyline class="st7" points="15,11.7 20.8,15 20.8,8.3 15,11.7 "/>
<polyline class="st6" points="9.2,15 15,18.3 15,11.7 9.2,15 "/>
<polyline class="st8" points="15,18.3 20.8,15 15,11.7 15,18.3 "/>
</svg>
